<svg width="134" height="40" viewBox="0 0 134 40" fill="none" xmlns="http://www.w3.org/2000/svg">
<path d="M39.3333 24.6667C39.3333 34.6067 30.68 39.3333 20 39.3333C9.31999 39.3333 0.666656 34.6067 0.666656 24.6667C0.666656 14.6667 3.33332 0.666666 5.99999 0.666666C7.60666 0.666666 10.0667 4.95333 11.32 9.05333C11.32 9.06 11.3267 9.06667 11.3267 9.07333C11.72 8.96667 12.1533 8.86 12.6267 8.75333C15.0501 8.23745 17.5223 7.98487 20 8C22.4777 7.98487 24.9498 8.23745 27.3733 8.75333C27.8467 8.86 28.28 8.96667 28.6733 9.07333C29.9267 4.96667 32.3933 0.666666 34 0.666666C36.6667 0.666666 39.3333 14.6667 39.3333 24.6667Z" fill="black"/>
<path d="M58.04 27C57.9067 27 57.7933 26.9533 57.7 26.86C57.6067 26.7667 57.56 26.6533 57.56 26.52V13.5C57.56 13.3533 57.6 13.2333 57.68 13.14C57.7733 13.0467 57.8933 13 58.04 13H59.8C59.9467 13 60.0667 13.0467 60.16 13.14C60.2533 13.2333 60.3 13.3533 60.3 13.5V18.18L64.82 13.36C64.9933 13.12 65.2533 13 65.6 13H67.58C67.6867 13 67.78 13.04 67.86 13.12C67.9533 13.2 68 13.3 68 13.42C68 13.5133 67.9733 13.5933 67.92 13.66L62.42 19.7L68.3 26.32C68.3667 26.4 68.4 26.4867 68.4 26.58C68.4 26.7 68.3533 26.8 68.26 26.88C68.18 26.96 68.0867 27 67.98 27H65.92C65.5867 27 65.3267 26.88 65.14 26.64L60.3 21.34V26.52C60.3 26.6667 60.2533 26.7867 60.16 26.88C60.0667 26.96 59.9467 27 59.8 27H58.04ZM74.8541 27.2C73.0407 27.2 71.6274 26.74 70.6141 25.82C69.6007 24.9 69.0674 23.5333 69.0141 21.72C69.0007 21.3333 68.9941 20.7667 68.9941 20.02C68.9941 19.26 69.0007 18.6867 69.0141 18.3C69.0674 16.5267 69.6141 15.1667 70.6541 14.22C71.6941 13.2733 73.0941 12.8 74.8541 12.8C76.6141 12.8 78.0141 13.2733 79.0541 14.22C80.1074 15.1667 80.6607 16.5267 80.7141 18.3C80.7407 19.0733 80.7541 19.6467 80.7541 20.02C80.7541 20.38 80.7407 20.9467 80.7141 21.72C80.6474 23.5333 80.1074 24.9 79.0941 25.82C78.0807 26.74 76.6674 27.2 74.8541 27.2ZM74.8541 24.9C75.7474 24.9 76.4607 24.6333 76.9941 24.1C77.5274 23.5533 77.8141 22.7267 77.8541 21.62C77.8807 20.82 77.8941 20.28 77.8941 20C77.8941 19.6933 77.8807 19.1533 77.8541 18.38C77.8141 17.2733 77.5274 16.4533 76.9941 15.92C76.4607 15.3733 75.7474 15.1 74.8541 15.1C73.9741 15.1 73.2674 15.3733 72.7341 15.92C72.2007 16.4533 71.9141 17.2733 71.8741 18.38C71.8607 18.7667 71.8541 19.3067 71.8541 20C71.8541 20.68 71.8607 21.22 71.8741 21.62C71.9141 22.7267 72.1941 23.5533 72.7141 24.1C73.2474 24.6333 73.9607 24.9 74.8541 24.9ZM86.6864 27C86.5531 27 86.4397 26.9533 86.3464 26.86C86.2531 26.7667 86.2064 26.6533 86.2064 26.52V15.46H82.5064C82.3731 15.46 82.2597 15.4133 82.1664 15.32C82.0731 15.2267 82.0264 15.1133 82.0264 14.98V13.5C82.0264 13.3533 82.0664 13.2333 82.1464 13.14C82.2397 13.0467 82.3597 13 82.5064 13H92.7064C92.8531 13 92.9731 13.0467 93.0664 13.14C93.1597 13.2333 93.2064 13.3533 93.2064 13.5V14.98C93.2064 15.1133 93.1597 15.2267 93.0664 15.32C92.9731 15.4133 92.8531 15.46 92.7064 15.46H89.0264V26.52C89.0264 26.6533 88.9797 26.7667 88.8864 26.86C88.7931 26.9533 88.6731 27 88.5264 27H86.6864ZM92.9109 27C92.8043 27 92.7043 26.96 92.6109 26.88C92.5309 26.8 92.4909 26.7 92.4909 26.58L92.5309 26.4L97.3509 13.5C97.4443 13.1667 97.6776 13 98.0509 13H100.231C100.578 13 100.811 13.1667 100.931 13.5L105.751 26.4C105.764 26.44 105.771 26.5 105.771 26.58C105.771 26.7 105.731 26.8 105.651 26.88C105.571 26.96 105.478 27 105.371 27H103.631C103.458 27 103.324 26.96 103.231 26.88C103.138 26.8 103.078 26.7133 103.051 26.62L102.111 24.18H96.1709L95.2309 26.62C95.1243 26.8733 94.9309 27 94.6509 27H92.9109ZM101.411 21.88L99.1309 15.7L96.8709 21.88H101.411ZM108.118 27C107.985 27 107.871 26.9533 107.778 26.86C107.685 26.7667 107.638 26.6533 107.638 26.52V13.5C107.638 13.3533 107.678 13.2333 107.758 13.14C107.851 13.0467 107.971 13 108.118 13H109.658C109.818 13 109.938 13.0333 110.018 13.1C110.098 13.1533 110.171 13.2267 110.238 13.32L115.998 22.28V13.5C115.998 13.3533 116.038 13.2333 116.118 13.14C116.211 13.0467 116.331 13 116.478 13H118.158C118.305 13 118.425 13.0467 118.518 13.14C118.611 13.2333 118.658 13.3533 118.658 13.5V26.5C118.658 26.6467 118.611 26.7667 118.518 26.86C118.425 26.9533 118.311 27 118.178 27H116.618C116.391 27 116.198 26.8933 116.038 26.68L110.298 17.92V26.52C110.298 26.6667 110.251 26.7867 110.158 26.88C110.065 26.96 109.945 27 109.798 27H108.118ZM125.939 27C125.805 27 125.692 26.9533 125.599 26.86C125.505 26.7667 125.459 26.6533 125.459 26.52V22L120.739 13.64C120.699 13.5733 120.679 13.5 120.679 13.42C120.679 13.3 120.719 13.2 120.799 13.12C120.879 13.04 120.972 13 121.079 13H122.859C123.005 13 123.125 13.04 123.219 13.12C123.325 13.2 123.405 13.2867 123.459 13.38L126.859 19.2L130.239 13.38C130.399 13.1267 130.605 13 130.859 13H132.619C132.739 13 132.839 13.04 132.919 13.12C132.999 13.2 133.039 13.3 133.039 13.42C133.039 13.5 133.019 13.5733 132.979 13.64L128.259 22V26.52C128.259 26.6533 128.212 26.7667 128.119 26.86C128.025 26.9533 127.905 27 127.759 27H125.939Z" fill="black"/>
</svg>
