<svg width="381" height="144" viewBox="0 0 381 144" fill="none" xmlns="http://www.w3.org/2000/svg">
<path d="M73.5 142C72.1667 142 71.0333 141.533 70.1 140.6C69.1667 139.667 68.7 138.533 68.7 137.2V111.6H5.3C3.96667 111.6 2.83333 111.133 1.9 110.2C0.966667 109.267 0.5 108.133 0.5 106.8V93.2C0.5 91.0667 1.23333 89.0667 2.7 87.2L61.7 5.4C62.3667 4.33333 63.3667 3.53333 64.7 3C66.0333 2.33333 67.5 2 69.1 2H90.9C92.3667 2 93.5 2.46667 94.3 3.4C95.2333 4.2 95.7 5.33333 95.7 6.8V88H113.5C114.967 88 116.167 88.4667 117.1 89.4C118.033 90.2 118.5 91.3333 118.5 92.8V106.8C118.5 108.133 118.033 109.267 117.1 110.2C116.167 111.133 115.033 111.6 113.7 111.6H95.7V137.2C95.7 138.533 95.2333 139.667 94.3 140.6C93.5 141.533 92.3667 142 90.9 142H73.5ZM69.3 88.8V31L28.3 88.8H69.3Z" fill="#DFE6E8"/>
<path d="M190.569 144C172.835 144 159.569 139.067 150.769 129.2C142.102 119.333 137.369 106.4 136.569 90.4C136.435 86.8 136.369 80.6667 136.369 72C136.369 63.2 136.435 56.9333 136.569 53.2C137.235 37.4667 142.035 24.6667 150.969 14.8C159.902 4.93333 173.102 0 190.569 0C208.169 0 221.435 4.93333 230.369 14.8C239.302 24.6667 244.035 37.4667 244.569 53.2C244.835 56.9333 244.969 63.2 244.969 72C244.969 80.6667 244.835 86.8 244.569 90.4C243.902 106.4 239.169 119.333 230.369 129.2C221.702 139.067 208.435 144 190.569 144ZM190.569 121C198.969 121 205.235 118.267 209.369 112.8C213.502 107.2 215.702 99.4 215.969 89.4C216.235 81.6667 216.369 75.8 216.369 71.8C216.369 67.4 216.235 61.6 215.969 54.4C215.702 44.5333 213.502 36.8 209.369 31.2C205.235 25.6 198.969 22.8 190.569 22.8C182.302 22.8 176.035 25.6 171.769 31.2C167.635 36.8 165.435 44.5333 165.169 54.4C165.035 58 164.969 63.8 164.969 71.8C164.969 79.6667 165.035 85.5333 165.169 89.4C165.435 99.4 167.635 107.2 171.769 112.8C176.035 118.267 182.302 121 190.569 121Z" fill="#DFE6E8"/>
<path d="M335.414 142C334.081 142 332.947 141.533 332.014 140.6C331.081 139.667 330.614 138.533 330.614 137.2V111.6H267.214C265.881 111.6 264.747 111.133 263.814 110.2C262.881 109.267 262.414 108.133 262.414 106.8V93.2C262.414 91.0667 263.147 89.0667 264.614 87.2L323.614 5.4C324.281 4.33333 325.281 3.53333 326.614 3C327.947 2.33333 329.414 2 331.014 2H352.814C354.281 2 355.414 2.46667 356.214 3.4C357.147 4.2 357.614 5.33333 357.614 6.8V88H375.414C376.881 88 378.081 88.4667 379.014 89.4C379.947 90.2 380.414 91.3333 380.414 92.8V106.8C380.414 108.133 379.947 109.267 379.014 110.2C378.081 111.133 376.947 111.6 375.614 111.6H357.614V137.2C357.614 138.533 357.147 139.667 356.214 140.6C355.414 141.533 354.281 142 352.814 142H335.414ZM331.214 88.8V31L290.214 88.8H331.214Z" fill="#DFE6E8"/>
<path d="M126.638 120.931C126.518 120.931 126.416 120.889 126.332 120.805C126.248 120.733 126.206 120.631 126.206 120.499V108.583C126.206 108.451 126.248 108.349 126.332 108.277C126.416 108.193 126.518 108.151 126.638 108.151H128.06C128.192 108.151 128.294 108.193 128.366 108.277C128.45 108.349 128.492 108.451 128.492 108.583V109.303C129.164 108.415 130.124 107.971 131.372 107.971C132.584 107.971 133.514 108.355 134.162 109.123C134.81 109.879 135.158 110.905 135.206 112.201C135.218 112.345 135.224 112.555 135.224 112.831C135.224 113.119 135.218 113.335 135.206 113.479C135.158 114.739 134.81 115.759 134.162 116.539C133.514 117.307 132.584 117.691 131.372 117.691C130.16 117.691 129.236 117.265 128.6 116.413V120.499C128.6 120.631 128.558 120.733 128.474 120.805C128.402 120.889 128.3 120.931 128.168 120.931H126.638ZM130.706 115.765C132.002 115.765 132.692 114.967 132.776 113.371C132.788 113.251 132.794 113.071 132.794 112.831C132.794 112.591 132.788 112.411 132.776 112.291C132.692 110.695 132.002 109.897 130.706 109.897C130.01 109.897 129.494 110.119 129.158 110.563C128.822 111.007 128.636 111.553 128.6 112.201L128.582 112.885L128.6 113.587C128.624 114.187 128.81 114.703 129.158 115.135C129.518 115.555 130.034 115.765 130.706 115.765Z" fill="black"/>
<path d="M139.963 117.691C139.351 117.691 138.787 117.571 138.271 117.331C137.767 117.079 137.365 116.743 137.065 116.323C136.777 115.903 136.633 115.441 136.633 114.937C136.633 114.121 136.963 113.461 137.623 112.957C138.283 112.453 139.189 112.111 140.341 111.931L142.807 111.571V111.193C142.807 110.665 142.675 110.269 142.411 110.005C142.147 109.741 141.721 109.609 141.133 109.609C140.737 109.609 140.413 109.687 140.161 109.843C139.921 109.987 139.729 110.131 139.585 110.275C139.441 110.431 139.345 110.533 139.297 110.581C139.249 110.725 139.159 110.797 139.027 110.797H137.641C137.533 110.797 137.437 110.761 137.353 110.689C137.281 110.617 137.245 110.521 137.245 110.401C137.257 110.101 137.401 109.759 137.677 109.375C137.965 108.991 138.403 108.661 138.991 108.385C139.579 108.109 140.299 107.971 141.151 107.971C142.567 107.971 143.599 108.289 144.247 108.925C144.895 109.561 145.219 110.395 145.219 111.427V117.079C145.219 117.199 145.177 117.301 145.093 117.385C145.021 117.469 144.919 117.511 144.787 117.511H143.329C143.209 117.511 143.107 117.469 143.023 117.385C142.939 117.301 142.897 117.199 142.897 117.079V116.377C142.633 116.761 142.255 117.079 141.763 117.331C141.283 117.571 140.683 117.691 139.963 117.691ZM140.575 115.981C141.235 115.981 141.775 115.765 142.195 115.333C142.615 114.901 142.825 114.271 142.825 113.443V113.065L141.025 113.353C140.329 113.461 139.801 113.635 139.441 113.875C139.093 114.115 138.919 114.409 138.919 114.757C138.919 115.141 139.081 115.441 139.405 115.657C139.729 115.873 140.119 115.981 140.575 115.981Z" fill="black"/>
<path d="M151.758 121.471C150.69 121.471 149.826 121.291 149.166 120.931C148.506 120.583 148.038 120.181 147.762 119.725C147.486 119.269 147.348 118.879 147.348 118.555C147.348 118.447 147.39 118.351 147.474 118.267C147.57 118.183 147.672 118.141 147.78 118.141H149.346C149.454 118.141 149.544 118.165 149.616 118.213C149.7 118.273 149.766 118.375 149.814 118.519C149.934 118.843 150.126 119.113 150.39 119.329C150.666 119.557 151.092 119.671 151.668 119.671C152.388 119.671 152.916 119.509 153.252 119.185C153.6 118.861 153.774 118.303 153.774 117.511V116.287C153.114 117.067 152.19 117.457 151.002 117.457C149.754 117.457 148.812 117.073 148.176 116.305C147.552 115.537 147.216 114.505 147.168 113.209L147.15 112.723L147.168 112.237C147.216 110.965 147.558 109.939 148.194 109.159C148.83 108.367 149.766 107.971 151.002 107.971C151.638 107.971 152.196 108.091 152.676 108.331C153.156 108.571 153.558 108.901 153.882 109.321V108.601C153.882 108.469 153.924 108.361 154.008 108.277C154.092 108.193 154.194 108.151 154.314 108.151H155.772C155.892 108.151 155.994 108.199 156.078 108.295C156.162 108.379 156.204 108.481 156.204 108.601L156.222 117.277C156.222 118.609 155.85 119.641 155.106 120.373C154.362 121.105 153.246 121.471 151.758 121.471ZM151.668 115.549C152.352 115.549 152.862 115.333 153.198 114.901C153.546 114.469 153.738 113.941 153.774 113.317C153.786 113.221 153.792 113.023 153.792 112.723C153.792 112.435 153.786 112.243 153.774 112.147C153.738 111.511 153.546 110.977 153.198 110.545C152.862 110.113 152.352 109.897 151.668 109.897C150.372 109.897 149.688 110.695 149.616 112.291L149.598 112.723C149.598 113.575 149.748 114.259 150.048 114.775C150.36 115.291 150.9 115.549 151.668 115.549Z" fill="black"/>
<path d="M162.652 117.691C161.32 117.691 160.258 117.307 159.466 116.539C158.686 115.759 158.272 114.667 158.224 113.263L158.206 112.813L158.224 112.363C158.284 110.995 158.704 109.921 159.484 109.141C160.276 108.361 161.332 107.971 162.652 107.971C164.068 107.971 165.16 108.403 165.928 109.267C166.708 110.131 167.098 111.283 167.098 112.723V113.101C167.098 113.221 167.056 113.323 166.972 113.407C166.888 113.491 166.78 113.533 166.648 113.533H160.672V113.677C160.696 114.337 160.876 114.895 161.212 115.351C161.56 115.795 162.034 116.017 162.634 116.017C163.342 116.017 163.912 115.741 164.344 115.189C164.452 115.057 164.536 114.973 164.596 114.937C164.668 114.901 164.77 114.883 164.902 114.883H166.45C166.558 114.883 166.648 114.919 166.72 114.991C166.804 115.051 166.846 115.129 166.846 115.225C166.846 115.513 166.672 115.855 166.324 116.251C165.988 116.635 165.502 116.971 164.866 117.259C164.23 117.547 163.492 117.691 162.652 117.691ZM164.65 112.021V111.967C164.65 111.259 164.47 110.689 164.11 110.257C163.762 109.825 163.276 109.609 162.652 109.609C162.028 109.609 161.542 109.825 161.194 110.257C160.846 110.689 160.672 111.259 160.672 111.967V112.021H164.65Z" fill="black"/>
<path d="M173.554 117.511C173.434 117.511 173.332 117.469 173.248 117.385C173.164 117.301 173.122 117.199 173.122 117.079V108.583C173.122 108.463 173.164 108.361 173.248 108.277C173.332 108.193 173.434 108.151 173.554 108.151H175.03C175.15 108.151 175.252 108.193 175.336 108.277C175.42 108.361 175.462 108.463 175.462 108.583V109.321C176.17 108.421 177.172 107.971 178.468 107.971C179.572 107.971 180.448 108.337 181.096 109.069C181.744 109.789 182.068 110.773 182.068 112.021V117.079C182.068 117.199 182.026 117.301 181.942 117.385C181.87 117.469 181.768 117.511 181.636 117.511H180.052C179.932 117.511 179.83 117.469 179.746 117.385C179.662 117.301 179.62 117.199 179.62 117.079V112.129C179.62 111.421 179.446 110.875 179.098 110.491C178.762 110.095 178.27 109.897 177.622 109.897C176.986 109.897 176.482 110.095 176.11 110.491C175.75 110.887 175.57 111.433 175.57 112.129V117.079C175.57 117.199 175.528 117.301 175.444 117.385C175.372 117.469 175.27 117.511 175.138 117.511H173.554Z" fill="black"/>
<path d="M188.494 117.691C187.09 117.691 186.004 117.331 185.236 116.611C184.468 115.879 184.054 114.883 183.994 113.623L183.976 112.831L183.994 112.039C184.054 110.791 184.474 109.801 185.254 109.069C186.034 108.337 187.114 107.971 188.494 107.971C189.874 107.971 190.954 108.337 191.734 109.069C192.514 109.801 192.934 110.791 192.994 112.039C193.006 112.183 193.012 112.447 193.012 112.831C193.012 113.215 193.006 113.479 192.994 113.623C192.934 114.883 192.52 115.879 191.752 116.611C190.984 117.331 189.898 117.691 188.494 117.691ZM188.494 115.909C189.13 115.909 189.622 115.711 189.97 115.315C190.318 114.907 190.51 114.313 190.546 113.533C190.558 113.413 190.564 113.179 190.564 112.831C190.564 112.483 190.558 112.249 190.546 112.129C190.51 111.349 190.318 110.761 189.97 110.365C189.622 109.957 189.13 109.753 188.494 109.753C187.858 109.753 187.366 109.957 187.018 110.365C186.67 110.761 186.478 111.349 186.442 112.129L186.424 112.831L186.442 113.533C186.478 114.313 186.67 114.907 187.018 115.315C187.366 115.711 187.858 115.909 188.494 115.909Z" fill="black"/>
<path d="M199.166 117.511C198.074 117.511 197.252 117.229 196.7 116.665C196.16 116.089 195.89 115.249 195.89 114.145V110.059H194.468C194.348 110.059 194.246 110.017 194.162 109.933C194.078 109.837 194.036 109.729 194.036 109.609V108.583C194.036 108.463 194.078 108.361 194.162 108.277C194.246 108.193 194.348 108.151 194.468 108.151H195.89V105.163C195.89 105.031 195.932 104.929 196.016 104.857C196.1 104.773 196.202 104.731 196.322 104.731H197.78C197.912 104.731 198.014 104.773 198.086 104.857C198.17 104.929 198.212 105.031 198.212 105.163V108.151H200.462C200.594 108.151 200.696 108.193 200.768 108.277C200.852 108.349 200.894 108.451 200.894 108.583V109.609C200.894 109.741 200.852 109.849 200.768 109.933C200.684 110.017 200.582 110.059 200.462 110.059H198.212V113.965C198.212 114.481 198.302 114.871 198.482 115.135C198.662 115.399 198.962 115.531 199.382 115.531H200.624C200.744 115.531 200.846 115.573 200.93 115.657C201.014 115.741 201.056 115.843 201.056 115.963V117.079C201.056 117.199 201.014 117.301 200.93 117.385C200.858 117.469 200.756 117.511 200.624 117.511H199.166Z" fill="black"/>
<path d="M207.89 117.511C207.77 117.511 207.668 117.469 207.584 117.385C207.5 117.301 207.458 117.199 207.458 117.079V110.059H206C205.88 110.059 205.778 110.017 205.694 109.933C205.61 109.837 205.568 109.729 205.568 109.609V108.583C205.568 108.463 205.61 108.361 205.694 108.277C205.778 108.193 205.88 108.151 206 108.151H207.458V107.413C207.458 105.265 208.634 104.191 210.986 104.191H212.21C212.342 104.191 212.444 104.233 212.516 104.317C212.6 104.389 212.642 104.491 212.642 104.623V105.649C212.642 105.781 212.6 105.889 212.516 105.973C212.432 106.057 212.33 106.099 212.21 106.099H211.058C210.59 106.099 210.26 106.213 210.068 106.441C209.888 106.669 209.798 107.023 209.798 107.503V108.151H212.03C212.162 108.151 212.264 108.193 212.336 108.277C212.42 108.349 212.462 108.451 212.462 108.583V109.609C212.462 109.741 212.42 109.849 212.336 109.933C212.252 110.017 212.15 110.059 212.03 110.059H209.798V117.079C209.798 117.199 209.756 117.301 209.672 117.385C209.588 117.469 209.486 117.511 209.366 117.511H207.89Z" fill="black"/>
<path d="M217.902 117.691C216.498 117.691 215.412 117.331 214.644 116.611C213.876 115.879 213.462 114.883 213.402 113.623L213.384 112.831L213.402 112.039C213.462 110.791 213.882 109.801 214.662 109.069C215.442 108.337 216.522 107.971 217.902 107.971C219.282 107.971 220.362 108.337 221.142 109.069C221.922 109.801 222.342 110.791 222.402 112.039C222.414 112.183 222.42 112.447 222.42 112.831C222.42 113.215 222.414 113.479 222.402 113.623C222.342 114.883 221.928 115.879 221.16 116.611C220.392 117.331 219.306 117.691 217.902 117.691ZM217.902 115.909C218.538 115.909 219.03 115.711 219.378 115.315C219.726 114.907 219.918 114.313 219.954 113.533C219.966 113.413 219.972 113.179 219.972 112.831C219.972 112.483 219.966 112.249 219.954 112.129C219.918 111.349 219.726 110.761 219.378 110.365C219.03 109.957 218.538 109.753 217.902 109.753C217.266 109.753 216.774 109.957 216.426 110.365C216.078 110.761 215.886 111.349 215.85 112.129L215.832 112.831L215.85 113.533C215.886 114.313 216.078 114.907 216.426 115.315C216.774 115.711 217.266 115.909 217.902 115.909Z" fill="black"/>
<path d="M227.889 117.691C226.785 117.691 225.915 117.331 225.279 116.611C224.643 115.879 224.325 114.889 224.325 113.641V108.583C224.325 108.463 224.367 108.361 224.451 108.277C224.535 108.193 224.637 108.151 224.757 108.151H226.341C226.473 108.151 226.575 108.193 226.647 108.277C226.731 108.349 226.773 108.451 226.773 108.583V113.533C226.773 115.021 227.427 115.765 228.735 115.765C229.359 115.765 229.851 115.567 230.211 115.171C230.583 114.775 230.769 114.229 230.769 113.533V108.583C230.769 108.463 230.811 108.361 230.895 108.277C230.979 108.193 231.081 108.151 231.201 108.151H232.785C232.917 108.151 233.019 108.193 233.091 108.277C233.175 108.349 233.217 108.451 233.217 108.583V117.079C233.217 117.199 233.175 117.301 233.091 117.385C233.019 117.469 232.917 117.511 232.785 117.511H231.327C231.207 117.511 231.105 117.469 231.021 117.385C230.937 117.301 230.895 117.199 230.895 117.079V116.341C230.223 117.241 229.221 117.691 227.889 117.691Z" fill="black"/>
<path d="M236.026 117.511C235.906 117.511 235.804 117.469 235.72 117.385C235.636 117.301 235.594 117.199 235.594 117.079V108.583C235.594 108.463 235.636 108.361 235.72 108.277C235.804 108.193 235.906 108.151 236.026 108.151H237.502C237.622 108.151 237.724 108.193 237.808 108.277C237.892 108.361 237.934 108.463 237.934 108.583V109.321C238.642 108.421 239.644 107.971 240.94 107.971C242.044 107.971 242.92 108.337 243.568 109.069C244.216 109.789 244.54 110.773 244.54 112.021V117.079C244.54 117.199 244.498 117.301 244.414 117.385C244.342 117.469 244.24 117.511 244.108 117.511H242.524C242.404 117.511 242.302 117.469 242.218 117.385C242.134 117.301 242.092 117.199 242.092 117.079V112.129C242.092 111.421 241.918 110.875 241.57 110.491C241.234 110.095 240.742 109.897 240.094 109.897C239.458 109.897 238.954 110.095 238.582 110.491C238.222 110.887 238.042 111.433 238.042 112.129V117.079C238.042 117.199 238 117.301 237.916 117.385C237.844 117.469 237.742 117.511 237.61 117.511H236.026Z" fill="black"/>
<path d="M250.301 117.691C249.089 117.691 248.159 117.301 247.511 116.521C246.863 115.741 246.515 114.703 246.467 113.407L246.449 112.813L246.467 112.237C246.503 110.977 246.845 109.951 247.493 109.159C248.153 108.367 249.089 107.971 250.301 107.971C251.465 107.971 252.389 108.367 253.073 109.159V105.163C253.073 105.031 253.115 104.929 253.199 104.857C253.283 104.773 253.385 104.731 253.505 104.731H255.035C255.167 104.731 255.269 104.773 255.341 104.857C255.425 104.929 255.467 105.031 255.467 105.163V117.079C255.467 117.199 255.425 117.301 255.341 117.385C255.269 117.469 255.167 117.511 255.035 117.511H253.613C253.493 117.511 253.391 117.469 253.307 117.385C253.223 117.301 253.181 117.199 253.181 117.079V116.413C252.497 117.265 251.537 117.691 250.301 117.691ZM250.967 115.765C251.663 115.765 252.179 115.543 252.515 115.099C252.851 114.655 253.037 114.109 253.073 113.461C253.085 113.317 253.091 113.083 253.091 112.759C253.091 112.447 253.085 112.219 253.073 112.075C253.049 111.475 252.857 110.965 252.497 110.545C252.149 110.113 251.639 109.897 250.967 109.897C249.671 109.897 248.981 110.695 248.897 112.291L248.879 112.831L248.897 113.371C248.981 114.967 249.671 115.765 250.967 115.765Z" fill="black"/>
</svg>
