<svg width="24" height="24" viewBox="0 0 24 24" fill="none" xmlns="http://www.w3.org/2000/svg">
<path d="M19.8159 16.0942C18.556 15.0292 17.8335 13.4725 17.8335 11.8233V9.5C17.8335 6.56757 15.6551 4.14005 12.8335 3.7334V2.83328C12.8335 2.37247 12.4601 2 12 2C11.5401 2 11.1667 2.37247 11.1667 2.83328V3.7334C8.34418 4.14005 6.16675 6.56757 6.16675 9.5V11.8233C6.16675 13.4725 5.44424 15.0292 4.1767 16.1008C3.8526 16.3784 3.66675 16.7816 3.66675 17.2083C3.66675 18.0126 4.32089 18.6667 5.12503 18.6667H18.875C19.6793 18.6667 20.3335 18.0126 20.3335 17.2083C20.3335 16.7816 20.1476 16.3784 19.8159 16.0942Z" fill="#FFCB52"/>
<path d="M11.9999 22C13.5092 22 14.7717 20.9241 15.0616 19.5H8.93823C9.2283 20.9241 10.4908 22 11.9999 22Z" fill="#FFCB52"/>
</svg>
